<svg width="14" height="16" viewBox="0 0 14 16" fill="none" xmlns="http://www.w3.org/2000/svg">
<path d="M0.256375 6.27816L6.38138 0.252052C6.54546 0.0906631 6.76798 0 7 0C7.23202 0 7.45454 0.0906631 7.61862 0.252052L13.7436 6.27816C13.9077 6.43957 14 6.6585 14 6.8868V15.1391C14 15.3674 13.9078 15.5864 13.7437 15.7479C13.5796 15.9093 13.3571 16 13.125 16H8.75V9.97389H5.25V16H0.875C0.642936 16 0.420376 15.9093 0.256282 15.7479C0.0921874 15.5864 0 15.3674 0 15.1391V6.8868C4.95577e-05 6.6585 0.0922695 6.43957 0.256375 6.27816Z" fill="#E1EDFD"/>
</svg>
