<svg width="109" height="26" viewBox="0 0 109 26" fill="none" xmlns="http://www.w3.org/2000/svg">
<path d="M24.9482 22V11.0909H32.1712V12.9925H27.2546V15.592H31.6918V17.4936H27.2546V22H24.9482ZM36.629 11.0909V22H34.3226V11.0909H36.629ZM48.2513 11.0909V22H46.2591L41.513 15.1339H41.4331V22H39.1267V11.0909H41.1508L45.8596 17.9517H45.9555V11.0909H48.2513ZM54.6241 22H50.7569V11.0909H54.6561C55.7534 11.0909 56.698 11.3093 57.4899 11.7461C58.2818 12.1793 58.8908 12.8026 59.317 13.6158C59.7466 14.429 59.9615 15.402 59.9615 16.5348C59.9615 17.6712 59.7466 18.6477 59.317 19.4645C58.8908 20.2812 58.2782 20.908 57.4792 21.3448C56.6838 21.7816 55.7321 22 54.6241 22ZM53.0634 20.0238H54.5282C55.2101 20.0238 55.7836 19.9031 56.2488 19.6616C56.7175 19.4165 57.0691 19.0384 57.3035 18.527C57.5414 18.0121 57.6604 17.348 57.6604 16.5348C57.6604 15.7287 57.5414 15.07 57.3035 14.5586C57.0691 14.0472 56.7193 13.6708 56.2541 13.4293C55.7889 13.1879 55.2154 13.0671 54.5336 13.0671H53.0634V20.0238ZM62.27 22V11.0909H64.5765V15.592H69.2587V11.0909H71.5598V22H69.2587V17.4936H64.5765V22H62.27ZM84.0863 16.5455C84.0863 17.7351 83.8608 18.7472 83.4098 19.5817C82.9624 20.4162 82.3516 21.0536 81.5774 21.494C80.8068 21.9308 79.9403 22.1491 78.978 22.1491C78.0085 22.1491 77.1385 21.929 76.3679 21.4886C75.5973 21.0483 74.9883 20.4109 74.5408 19.5763C74.0934 18.7418 73.8697 17.7315 73.8697 16.5455C73.8697 15.3558 74.0934 14.3438 74.5408 13.5092C74.9883 12.6747 75.5973 12.0391 76.3679 11.6023C77.1385 11.1619 78.0085 10.9418 78.978 10.9418C79.9403 10.9418 80.8068 11.1619 81.5774 11.6023C82.3516 12.0391 82.9624 12.6747 83.4098 13.5092C83.8608 14.3438 84.0863 15.3558 84.0863 16.5455ZM81.7479 16.5455C81.7479 15.7749 81.6325 15.125 81.4016 14.5959C81.1744 14.0668 80.853 13.6655 80.4375 13.392C80.022 13.1186 79.5355 12.9819 78.978 12.9819C78.4205 12.9819 77.9339 13.1186 77.5185 13.392C77.103 13.6655 76.7798 14.0668 76.549 14.5959C76.3217 15.125 76.2081 15.7749 76.2081 16.5455C76.2081 17.3161 76.3217 17.9659 76.549 18.495C76.7798 19.0241 77.103 19.4254 77.5185 19.6989C77.9339 19.9723 78.4205 20.109 78.978 20.109C79.5355 20.109 80.022 19.9723 80.4375 19.6989C80.853 19.4254 81.1744 19.0241 81.4016 18.495C81.6325 17.9659 81.7479 17.3161 81.7479 16.5455ZM86.3948 11.0909H89.2393L92.2436 18.4205H92.3714L95.3757 11.0909H98.2201V22H95.9829V14.8995H95.8923L93.0692 21.9467H91.5458L88.7226 14.8729H88.632V22H86.3948V11.0909ZM100.72 22V11.0909H108.071V12.9925H103.027V15.592H107.693V17.4936H103.027V20.0984H108.093V22H100.72Z" fill="#62A0FE"/>
<path d="M0.36625 8.63247L9.11625 0.346571C9.35066 0.124662 9.66854 0 10 0C10.3315 0 10.6493 0.124662 10.8837 0.346571L19.6338 8.63247C19.8682 8.85441 19.9999 9.15544 20 9.46935V20.8163C20 21.1302 19.8683 21.4313 19.6339 21.6533C19.3995 21.8753 19.0815 22 18.75 22H12.5V13.7141H7.5V22H1.25C0.918479 22 0.600537 21.8753 0.366117 21.6533C0.131696 21.4313 0 21.1302 0 20.8163V9.46935C7.07968e-05 9.15544 0.131814 8.85441 0.36625 8.63247V8.63247Z" fill="#62A0FE"/>
</svg>
